<mxfile host="app.diagrams.net" modified="2023-05-06T16:59:11.107Z" agent="Mozilla/5.0 (Macintosh; Intel Mac OS X 10_15_7) AppleWebKit/537.36 (KHTML, like Gecko) Chrome/112.0.0.0 Safari/537.36" etag="bpM2LEaHR02qORo6lHUe" version="21.2.9" type="google">
  <diagram name="Page-1" id="e7IY12ufXbsBmmgzLiVT">
    <mxGraphModel grid="1" page="1" gridSize="10" guides="1" tooltips="1" connect="1" arrows="1" fold="1" pageScale="1" pageWidth="850" pageHeight="1100" math="0" shadow="0">
      <root>
        <mxCell id="0" />
        <mxCell id="1" parent="0" />
        <mxCell id="XQE7xp3LXNgqBMlx6EA1-220" style="edgeStyle=orthogonalEdgeStyle;rounded=0;orthogonalLoop=1;jettySize=auto;html=1;" edge="1" parent="1" source="XQE7xp3LXNgqBMlx6EA1-1" target="XQE7xp3LXNgqBMlx6EA1-218">
          <mxGeometry relative="1" as="geometry">
            <mxPoint x="-650" y="590" as="targetPoint" />
          </mxGeometry>
        </mxCell>
        <mxCell id="XQE7xp3LXNgqBMlx6EA1-221" style="edgeStyle=orthogonalEdgeStyle;rounded=0;orthogonalLoop=1;jettySize=auto;html=1;" edge="1" parent="1" source="XQE7xp3LXNgqBMlx6EA1-1" target="XQE7xp3LXNgqBMlx6EA1-217">
          <mxGeometry relative="1" as="geometry">
            <Array as="points">
              <mxPoint x="-778" y="450" />
            </Array>
          </mxGeometry>
        </mxCell>
        <mxCell id="XQE7xp3LXNgqBMlx6EA1-222" style="edgeStyle=orthogonalEdgeStyle;rounded=0;orthogonalLoop=1;jettySize=auto;html=1;" edge="1" parent="1" source="XQE7xp3LXNgqBMlx6EA1-1" target="XQE7xp3LXNgqBMlx6EA1-219">
          <mxGeometry relative="1" as="geometry">
            <Array as="points">
              <mxPoint x="-778" y="740" />
            </Array>
          </mxGeometry>
        </mxCell>
        <mxCell id="XQE7xp3LXNgqBMlx6EA1-1" value="&lt;meta charset=&quot;utf-8&quot;&gt;&lt;span style=&quot;color: rgb(0, 0, 0); font-family: Helvetica; font-size: 12px; font-style: normal; font-variant-ligatures: normal; font-variant-caps: normal; font-weight: 400; letter-spacing: normal; orphans: 2; text-align: center; text-indent: 0px; text-transform: none; widows: 2; word-spacing: 0px; -webkit-text-stroke-width: 0px; background-color: rgb(251, 251, 251); text-decoration-thickness: initial; text-decoration-style: initial; text-decoration-color: initial; float: none; display: inline !important;&quot;&gt;Storage Account&lt;/span&gt;" style="image;aspect=fixed;html=1;points=[];align=center;fontSize=12;image=img/lib/azure2/storage/Storage_Accounts.svg;" vertex="1" parent="1">
          <mxGeometry x="-810" y="564" width="65" height="52" as="geometry" />
        </mxCell>
        <mxCell id="XQE7xp3LXNgqBMlx6EA1-6" value="&lt;font style=&quot;font-size: 21px;&quot;&gt;Country&lt;/font&gt;" style="whiteSpace=wrap;html=1;" vertex="1" parent="1">
          <mxGeometry x="-510" y="453" width="90" height="40" as="geometry" />
        </mxCell>
        <mxCell id="_Ll80TRdAthYfCAMq81Y-44" value="Extract metric data" style="edgeStyle=orthogonalEdgeStyle;rounded=0;orthogonalLoop=1;jettySize=auto;html=1;entryX=0;entryY=0.5;entryDx=0;entryDy=0;entryPerimeter=0;" edge="1" parent="1" source="XQE7xp3LXNgqBMlx6EA1-8" target="XQE7xp3LXNgqBMlx6EA1-226">
          <mxGeometry x="0.0053" relative="1" as="geometry">
            <mxPoint as="offset" />
          </mxGeometry>
        </mxCell>
        <mxCell id="XQE7xp3LXNgqBMlx6EA1-8" value="&lt;font style=&quot;font-size: 21px;&quot;&gt;Covid19&lt;/font&gt;" style="whiteSpace=wrap;html=1;" vertex="1" parent="1">
          <mxGeometry x="-510" y="493" width="90" height="40" as="geometry" />
        </mxCell>
        <mxCell id="XQE7xp3LXNgqBMlx6EA1-9" value="&lt;font style=&quot;font-size: 21px;&quot;&gt;Date&lt;/font&gt;" style="whiteSpace=wrap;html=1;" vertex="1" parent="1">
          <mxGeometry x="-510" y="534" width="90" height="40" as="geometry" />
        </mxCell>
        <mxCell id="_Ll80TRdAthYfCAMq81Y-45" value="extract policy data" style="edgeStyle=orthogonalEdgeStyle;rounded=0;orthogonalLoop=1;jettySize=auto;html=1;entryX=0;entryY=0.5;entryDx=0;entryDy=0;entryPerimeter=0;" edge="1" parent="1" source="XQE7xp3LXNgqBMlx6EA1-11" target="XQE7xp3LXNgqBMlx6EA1-226">
          <mxGeometry relative="1" as="geometry" />
        </mxCell>
        <mxCell id="XQE7xp3LXNgqBMlx6EA1-11" value="&lt;font style=&quot;font-size: 21px;&quot;&gt;Policy&lt;/font&gt;" style="whiteSpace=wrap;html=1;" vertex="1" parent="1">
          <mxGeometry x="-510" y="715.5" width="90" height="40" as="geometry" />
        </mxCell>
        <mxCell id="XQE7xp3LXNgqBMlx6EA1-223" style="edgeStyle=orthogonalEdgeStyle;rounded=0;orthogonalLoop=1;jettySize=auto;html=1;entryX=0;entryY=0.5;entryDx=0;entryDy=0;" edge="1" parent="1" source="XQE7xp3LXNgqBMlx6EA1-217" target="XQE7xp3LXNgqBMlx6EA1-8">
          <mxGeometry relative="1" as="geometry" />
        </mxCell>
        <mxCell id="XQE7xp3LXNgqBMlx6EA1-217" value="&lt;meta charset=&quot;utf-8&quot;&gt;srcsqlserver" style="sketch=0;outlineConnect=0;fontColor=#232F3E;gradientColor=none;fillColor=#232F3D;strokeColor=none;dashed=0;verticalLabelPosition=bottom;verticalAlign=top;align=center;html=1;fontSize=12;fontStyle=0;aspect=fixed;pointerEvents=1;shape=mxgraph.aws4.folder;" vertex="1" parent="1">
          <mxGeometry x="-700" y="410" width="78" height="71" as="geometry" />
        </mxCell>
        <mxCell id="XQE7xp3LXNgqBMlx6EA1-224" style="edgeStyle=orthogonalEdgeStyle;rounded=0;orthogonalLoop=1;jettySize=auto;html=1;entryX=0;entryY=0.5;entryDx=0;entryDy=0;" edge="1" parent="1" source="XQE7xp3LXNgqBMlx6EA1-218" target="XQE7xp3LXNgqBMlx6EA1-8">
          <mxGeometry relative="1" as="geometry" />
        </mxCell>
        <mxCell id="XQE7xp3LXNgqBMlx6EA1-218" value="&lt;meta charset=&quot;utf-8&quot;&gt;srcazuresql" style="sketch=0;outlineConnect=0;fontColor=#232F3E;gradientColor=none;fillColor=#232F3D;strokeColor=none;dashed=0;verticalLabelPosition=bottom;verticalAlign=top;align=center;html=1;fontSize=12;fontStyle=0;aspect=fixed;pointerEvents=1;shape=mxgraph.aws4.folder;" vertex="1" parent="1">
          <mxGeometry x="-700" y="554.5" width="78" height="71" as="geometry" />
        </mxCell>
        <mxCell id="XxaaV2Wx_koKHQcQDldX-3" style="edgeStyle=orthogonalEdgeStyle;rounded=0;orthogonalLoop=1;jettySize=auto;html=1;entryX=0;entryY=0.5;entryDx=0;entryDy=0;" edge="1" parent="1" source="XQE7xp3LXNgqBMlx6EA1-219" target="XQE7xp3LXNgqBMlx6EA1-11">
          <mxGeometry relative="1" as="geometry" />
        </mxCell>
        <mxCell id="XQE7xp3LXNgqBMlx6EA1-219" value="&lt;meta charset=&quot;utf-8&quot;&gt;srccosmos" style="sketch=0;outlineConnect=0;fontColor=#232F3E;gradientColor=none;fillColor=#232F3D;strokeColor=none;dashed=0;verticalLabelPosition=bottom;verticalAlign=top;align=center;html=1;fontSize=12;fontStyle=0;aspect=fixed;pointerEvents=1;shape=mxgraph.aws4.folder;" vertex="1" parent="1">
          <mxGeometry x="-700" y="700" width="78" height="71" as="geometry" />
        </mxCell>
        <mxCell id="_Ll80TRdAthYfCAMq81Y-38" style="edgeStyle=orthogonalEdgeStyle;rounded=0;orthogonalLoop=1;jettySize=auto;html=1;entryX=-0.092;entryY=0.544;entryDx=0;entryDy=0;entryPerimeter=0;" edge="1" parent="1" source="XQE7xp3LXNgqBMlx6EA1-226" target="_Ll80TRdAthYfCAMq81Y-2">
          <mxGeometry relative="1" as="geometry">
            <Array as="points">
              <mxPoint x="-130" y="603.25" />
              <mxPoint x="-130" y="449.25" />
            </Array>
          </mxGeometry>
        </mxCell>
        <mxCell id="_Ll80TRdAthYfCAMq81Y-39" style="edgeStyle=orthogonalEdgeStyle;rounded=0;orthogonalLoop=1;jettySize=auto;html=1;entryX=-0.041;entryY=0.575;entryDx=0;entryDy=0;entryPerimeter=0;" edge="1" parent="1" source="XQE7xp3LXNgqBMlx6EA1-226" target="_Ll80TRdAthYfCAMq81Y-33">
          <mxGeometry relative="1" as="geometry">
            <Array as="points">
              <mxPoint x="-130" y="603.25" />
              <mxPoint x="-130" y="513.25" />
            </Array>
          </mxGeometry>
        </mxCell>
        <mxCell id="_Ll80TRdAthYfCAMq81Y-40" style="edgeStyle=orthogonalEdgeStyle;rounded=0;orthogonalLoop=1;jettySize=auto;html=1;entryX=0;entryY=0.513;entryDx=0;entryDy=0;entryPerimeter=0;" edge="1" parent="1" source="XQE7xp3LXNgqBMlx6EA1-226" target="_Ll80TRdAthYfCAMq81Y-34">
          <mxGeometry relative="1" as="geometry">
            <Array as="points">
              <mxPoint x="-130" y="603.25" />
              <mxPoint x="-130" y="568.25" />
            </Array>
          </mxGeometry>
        </mxCell>
        <mxCell id="_Ll80TRdAthYfCAMq81Y-41" style="edgeStyle=orthogonalEdgeStyle;rounded=0;orthogonalLoop=1;jettySize=auto;html=1;entryX=-0.092;entryY=0.552;entryDx=0;entryDy=0;entryPerimeter=0;" edge="1" parent="1" source="XQE7xp3LXNgqBMlx6EA1-226" target="_Ll80TRdAthYfCAMq81Y-35">
          <mxGeometry relative="1" as="geometry">
            <Array as="points">
              <mxPoint x="-130" y="603.25" />
              <mxPoint x="-130" y="625.25" />
            </Array>
          </mxGeometry>
        </mxCell>
        <mxCell id="_Ll80TRdAthYfCAMq81Y-42" style="edgeStyle=orthogonalEdgeStyle;rounded=0;orthogonalLoop=1;jettySize=auto;html=1;entryX=-0.067;entryY=0.623;entryDx=0;entryDy=0;entryPerimeter=0;" edge="1" parent="1" source="XQE7xp3LXNgqBMlx6EA1-226" target="_Ll80TRdAthYfCAMq81Y-36">
          <mxGeometry relative="1" as="geometry">
            <Array as="points">
              <mxPoint x="-130" y="603.25" />
              <mxPoint x="-130" y="680.25" />
            </Array>
          </mxGeometry>
        </mxCell>
        <mxCell id="_Ll80TRdAthYfCAMq81Y-43" style="edgeStyle=orthogonalEdgeStyle;rounded=0;orthogonalLoop=1;jettySize=auto;html=1;entryX=-0.015;entryY=0.536;entryDx=0;entryDy=0;entryPerimeter=0;" edge="1" parent="1" source="XQE7xp3LXNgqBMlx6EA1-226" target="_Ll80TRdAthYfCAMq81Y-37">
          <mxGeometry relative="1" as="geometry">
            <Array as="points">
              <mxPoint x="-130" y="603.25" />
              <mxPoint x="-130" y="733.25" />
            </Array>
          </mxGeometry>
        </mxCell>
        <mxCell id="XQE7xp3LXNgqBMlx6EA1-226" value="ODS" style="strokeWidth=2;html=1;shape=mxgraph.flowchart.database;whiteSpace=wrap;fillColor=#dae8fc;strokeColor=#6c8ebf;fontSize=37;" vertex="1" parent="1">
          <mxGeometry x="-250" y="558.25" width="90" height="90" as="geometry" />
        </mxCell>
        <mxCell id="XQE7xp3LXNgqBMlx6EA1-230" value="store intermediate data" style="text;html=1;align=center;verticalAlign=middle;resizable=0;points=[];autosize=1;strokeColor=none;fillColor=none;" vertex="1" parent="1">
          <mxGeometry x="-280" y="648.25" width="150" height="30" as="geometry" />
        </mxCell>
        <mxCell id="XxaaV2Wx_koKHQcQDldX-7" style="edgeStyle=orthogonalEdgeStyle;rounded=0;orthogonalLoop=1;jettySize=auto;html=1;" edge="1" parent="1" source="_Ll80TRdAthYfCAMq81Y-2" target="XxaaV2Wx_koKHQcQDldX-5">
          <mxGeometry relative="1" as="geometry" />
        </mxCell>
        <mxCell id="_Ll80TRdAthYfCAMq81Y-2" value="Cases" style="html=1;verticalLabelPosition=bottom;align=center;labelBackgroundColor=#ffffff;verticalAlign=top;strokeWidth=2;strokeColor=#0080F0;shadow=0;dashed=0;shape=mxgraph.ios7.icons.folder;" vertex="1" parent="1">
          <mxGeometry x="-50" y="438.25" width="30" height="19.5" as="geometry" />
        </mxCell>
        <mxCell id="XxaaV2Wx_koKHQcQDldX-8" style="edgeStyle=orthogonalEdgeStyle;rounded=0;orthogonalLoop=1;jettySize=auto;html=1;" edge="1" parent="1" source="_Ll80TRdAthYfCAMq81Y-33" target="XxaaV2Wx_koKHQcQDldX-5">
          <mxGeometry relative="1" as="geometry" />
        </mxCell>
        <mxCell id="_Ll80TRdAthYfCAMq81Y-33" value="Deaths" style="html=1;verticalLabelPosition=bottom;align=center;labelBackgroundColor=#ffffff;verticalAlign=top;strokeWidth=2;strokeColor=#0080F0;shadow=0;dashed=0;shape=mxgraph.ios7.icons.folder;" vertex="1" parent="1">
          <mxGeometry x="-50" y="501.5" width="30" height="19.5" as="geometry" />
        </mxCell>
        <mxCell id="XxaaV2Wx_koKHQcQDldX-9" style="edgeStyle=orthogonalEdgeStyle;rounded=0;orthogonalLoop=1;jettySize=auto;html=1;" edge="1" parent="1" source="_Ll80TRdAthYfCAMq81Y-34" target="XxaaV2Wx_koKHQcQDldX-5">
          <mxGeometry relative="1" as="geometry" />
        </mxCell>
        <mxCell id="_Ll80TRdAthYfCAMq81Y-34" value="Recoveries" style="html=1;verticalLabelPosition=bottom;align=center;labelBackgroundColor=#ffffff;verticalAlign=top;strokeWidth=2;strokeColor=#0080F0;shadow=0;dashed=0;shape=mxgraph.ios7.icons.folder;" vertex="1" parent="1">
          <mxGeometry x="-50" y="558.25" width="30" height="19.5" as="geometry" />
        </mxCell>
        <mxCell id="XxaaV2Wx_koKHQcQDldX-10" style="edgeStyle=orthogonalEdgeStyle;rounded=0;orthogonalLoop=1;jettySize=auto;html=1;" edge="1" parent="1" source="_Ll80TRdAthYfCAMq81Y-35" target="XxaaV2Wx_koKHQcQDldX-5">
          <mxGeometry relative="1" as="geometry" />
        </mxCell>
        <mxCell id="_Ll80TRdAthYfCAMq81Y-35" value="Policies" style="html=1;verticalLabelPosition=bottom;align=center;labelBackgroundColor=#ffffff;verticalAlign=top;strokeWidth=2;strokeColor=#0080F0;shadow=0;dashed=0;shape=mxgraph.ios7.icons.folder;" vertex="1" parent="1">
          <mxGeometry x="-50" y="614.25" width="30" height="19.5" as="geometry" />
        </mxCell>
        <mxCell id="XxaaV2Wx_koKHQcQDldX-11" style="edgeStyle=orthogonalEdgeStyle;rounded=0;orthogonalLoop=1;jettySize=auto;html=1;" edge="1" parent="1" source="_Ll80TRdAthYfCAMq81Y-36" target="XxaaV2Wx_koKHQcQDldX-5">
          <mxGeometry relative="1" as="geometry" />
        </mxCell>
        <mxCell id="_Ll80TRdAthYfCAMq81Y-36" value="Geography" style="html=1;verticalLabelPosition=bottom;align=center;labelBackgroundColor=#ffffff;verticalAlign=top;strokeWidth=2;strokeColor=#0080F0;shadow=0;dashed=0;shape=mxgraph.ios7.icons.folder;" vertex="1" parent="1">
          <mxGeometry x="-50" y="668.25" width="30" height="19.5" as="geometry" />
        </mxCell>
        <mxCell id="XxaaV2Wx_koKHQcQDldX-12" value="Import" style="edgeStyle=orthogonalEdgeStyle;rounded=0;orthogonalLoop=1;jettySize=auto;html=1;" edge="1" parent="1" source="_Ll80TRdAthYfCAMq81Y-37" target="XxaaV2Wx_koKHQcQDldX-5">
          <mxGeometry relative="1" as="geometry" />
        </mxCell>
        <mxCell id="_Ll80TRdAthYfCAMq81Y-37" value="Date" style="html=1;verticalLabelPosition=bottom;align=center;labelBackgroundColor=#ffffff;verticalAlign=top;strokeWidth=2;strokeColor=#0080F0;shadow=0;dashed=0;shape=mxgraph.ios7.icons.folder;" vertex="1" parent="1">
          <mxGeometry x="-50" y="722.25" width="30" height="19.5" as="geometry" />
        </mxCell>
        <mxCell id="XxaaV2Wx_koKHQcQDldX-4" style="edgeStyle=orthogonalEdgeStyle;rounded=0;orthogonalLoop=1;jettySize=auto;html=1;entryX=0.004;entryY=0.745;entryDx=0;entryDy=0;entryPerimeter=0;" edge="1" parent="1" source="XxaaV2Wx_koKHQcQDldX-1" target="XQE7xp3LXNgqBMlx6EA1-1">
          <mxGeometry relative="1" as="geometry" />
        </mxCell>
        <mxCell id="XxaaV2Wx_koKHQcQDldX-6" style="edgeStyle=orthogonalEdgeStyle;rounded=0;orthogonalLoop=1;jettySize=auto;html=1;" edge="1" parent="1" target="XxaaV2Wx_koKHQcQDldX-5">
          <mxGeometry relative="1" as="geometry">
            <mxPoint x="-918" y="852" as="sourcePoint" />
            <mxPoint x="-256" y="945" as="targetPoint" />
            <Array as="points">
              <mxPoint x="-866" y="852" />
              <mxPoint x="-866" y="945" />
            </Array>
          </mxGeometry>
        </mxCell>
        <mxCell id="XxaaV2Wx_koKHQcQDldX-1" value="Resource Group" style="image;aspect=fixed;html=1;points=[];align=center;fontSize=12;image=img/lib/azure2/general/Resource_Groups.svg;" vertex="1" parent="1">
          <mxGeometry x="-990" y="820" width="68" height="64" as="geometry" />
        </mxCell>
        <mxCell id="LdxXrbwAJbMHGEGT_5iI-2" style="edgeStyle=orthogonalEdgeStyle;rounded=0;orthogonalLoop=1;jettySize=auto;html=1;" edge="1" parent="1" source="XxaaV2Wx_koKHQcQDldX-5">
          <mxGeometry relative="1" as="geometry">
            <mxPoint x="220" y="944.5" as="targetPoint" />
          </mxGeometry>
        </mxCell>
        <mxCell id="XxaaV2Wx_koKHQcQDldX-5" value="&lt;meta charset=&quot;utf-8&quot;&gt;Azure Synapse Analytics" style="image;aspect=fixed;html=1;points=[];align=center;fontSize=12;image=img/lib/azure2/analytics/Azure_Synapse_Analytics.svg;" vertex="1" parent="1">
          <mxGeometry x="30" y="910" width="60" height="69" as="geometry" />
        </mxCell>
        <mxCell id="LdxXrbwAJbMHGEGT_5iI-1" value="PowerBI" style="shape=image;html=1;verticalAlign=top;verticalLabelPosition=bottom;labelBackgroundColor=#ffffff;imageAspect=0;aspect=fixed;image=https://cdn2.iconfinder.com/data/icons/essential-web-4/50/barchart-graph-stat-statistics-summary-128.png" vertex="1" parent="1">
          <mxGeometry x="230" y="891" width="88" height="88" as="geometry" />
        </mxCell>
      </root>
    </mxGraphModel>
  </diagram>
</mxfile>
